<?xml version="1.0" encoding="utf-8"?>
<!-- Svg Vector Icons : http://www.onlinewebfonts.com/icon -->
<!DOCTYPE svg PUBLIC "-//W3C//DTD SVG 1.1//EN" "http://www.w3.org/Graphics/SVG/1.1/DTD/svg11.dtd">
<svg version="1.1" xmlns="http://www.w3.org/2000/svg" xmlns:xlink="http://www.w3.org/1999/xlink" x="0px" y="0px" viewBox="0 0 1000 1000" enable-background="new 0 0 1000 1000" xml:space="preserve">
<metadata> Svg Vector Icons : http://www.onlinewebfonts.com/icon </metadata>
<g><g transform="translate(0.000000,48.000000) scale(0.100000,-0.100000)"><path d="M587.6,315.4c-62-103.2-227-2207.5-350.8-4662.7C51.1-7813.5,51.1-8927.5,257.4-9154.5c350.7-412.6,9098.7-433.2,9449.2,0c309.5,371.5,227.1,6148.3-103.2,6251.5c-123.7,41.2-639.5-309.5-1175.9-763.4l-949.2-845.9l-61.9,763.4c-41.3,433.3-165,804.6-288.9,845.9c-123.7,41.2-639.5-309.5-1175.9-763.4l-949.1-845.9l-62,763.4c-41.2,433.3-165,804.6-288.8,845.9c-123.8,41.2-639.6-309.5-1176-763.4l-949.1-825.3l-123.8,1176.1C1990.5,583.7,2052.3,356.8,1330.2,418.6C979.6,459.9,649.4,398.1,587.6,315.4z M3847.4-6142.2c0-371.3-123.8-536.6-474.5-577.7c-268.3-41.3-515.8,61.9-577.7,247.4c-206.3,536.6,82.5,990.5,577.7,907.9C3723.5-5605.8,3847.4-5770.8,3847.4-6142.2z M6323.2-6142.2c0-371.3-123.9-536.6-474.5-577.7c-495.2-82.6-784.1,371.3-577.9,907.7c62.1,185.8,309.5,288.9,577.9,247.6C6199.3-5605.8,6323.2-5770.8,6323.2-6142.2z M8799-6142.2c0-371.3-123.9-536.6-474.5-577.7c-495.2-82.6-784.2,371.3-577.9,907.7c62.1,185.8,309.5,288.9,577.9,247.6C8675.1-5605.8,8799-5770.8,8799-6142.2z"/></g></g>
</svg>