<?xml version="1.0" encoding="utf-8"?>
<!-- Svg Vector Icons : http://www.onlinewebfonts.com/icon -->
<!DOCTYPE svg PUBLIC "-//W3C//DTD SVG 1.1//EN" "http://www.w3.org/Graphics/SVG/1.1/DTD/svg11.dtd">
<svg version="1.1" xmlns="http://www.w3.org/2000/svg" xmlns:xlink="http://www.w3.org/1999/xlink" x="0px" y="0px" viewBox="0 0 1000 1000" enable-background="new 0 0 1000 1000" xml:space="preserve">
<metadata> Svg Vector Icons : http://www.onlinewebfonts.com/icon </metadata>
<g><g transform="translate(0.000000,511.000000) scale(0.100000,-0.100000)"><path d="M4482.9,4978.8c-816.1-126.7-1511.8-539.9-1954.2-1160.9c-137.1-191.1-216-340.6-311.5-591.9c-143.3-369.6-137.1-159.9-130.8-3733.9c6.2-2838.8,10.4-3227.2,37.4-3243.8c18.7-12.5,1121.4-20.8,2878.3-20.8c2475.4,0,2851.3,4.2,2874.1,31.2c33.2,39.5,35.3,6510.4,2.1,6657.9c-60.2,265.8-247.1,677-411.2,907.5c-145.4,205.6-419.5,479.7-625.1,627.2c-515,369.6-1152.6,562.8-1848.3,558.6C4813.1,5007.9,4584.7,4995.4,4482.9,4978.8z M4761.2,3246.8V2104.6H3681.3H2601.4v317.7c0,365.5,37.4,562.8,155.8,818.2c286.6,620.9,944.9,1038.3,1775.6,1125.6c97.6,8.3,189,18.7,203.5,20.8C4754.9,4389,4761.2,4148.1,4761.2,3246.8z M5502.6,4357.9c182.8-16.6,508.8-93.5,689.5-164c604.3-238.8,1011.3-681.2,1156.7-1254.3c41.5-166.1,49.8-247.1,49.8-515v-319.8H6318.7H5238.8v1127.6c0,620.9,6.2,1136,12.5,1142.2c8.3,8.3,33.2,10.4,58.2,4.2C5334.3,4374.5,5421.6,4364.1,5502.6,4357.9z M4757,501.4l4.2-1138H3681.3H2601.4V505.6v1142.2l1075.7-4.2l1073.7-6.2L4757,501.4z M7398.6,505.6V-636.6H6318.7H5238.8V491c0,620.9,6.2,1136,14.6,1142.2c6.2,8.3,492.2,14.5,1079.9,14.5h1065.3V505.6z M4761.2-2194.1v-1142.2H3681.3H2601.4v1142.2V-1052h1079.9h1079.9V-2194.1z M7398.6-2194.1v-1142.2H6318.7H5238.8v1142.2V-1052h1079.9h1079.9V-2194.1z"/><path d="M1334.6-4540.8V-4790H5000h3665.4v249.2v249.2H5000H1334.6V-4540.8z"/></g></g>
</svg>